# xmcd CD database file
#
# Track frame offsets:
#	180
#	16006
#	28767
#	42108
#	60539
#	75332
#	89596
#	102009
#	115264
#	129081
#	142422
#	156784
#	200307
#
# Disc length: 2843 seconds
#
# Revision: 0
# Processed by: cddbd v1.5.2PL0 Copyright (c) Steve Scherf et al.
# Submitted via: CDex 1.70beta2
#
DISCID=9d0b190d
DTITLE=Charlie Parker - Great Master [CD8 of 10)
DYEAR=1900
DGENRE=Jazz
TTITLE0=Autumn In New York (1952)
TTITLE1=Blue Bird (1947)
TTITLE2=Cheryl (1947)
TTITLE3=Dizzy Atmosphere (1947)
TTITLE4=Everything Happens To Me (1949)
TTITLE5=I Can't Get Started With You (1952)
TTITLE6=Klaunstance (1947)
TTITLE7=Mango Mangue (1948)
TTITLE8=Night In Tunesia (1946)
TTITLE9=Poppity Pop (1945)
TTITLE10=She Rote (1951)
TTITLE11=Sweet Georgia Brown (1946)
TTITLE12=Thriving On A Riff (1945)
EXTD=
EXTT0=
EXTT1=
EXTT2=
EXTT3=
EXTT4=
EXTT5=
EXTT6=
EXTT7=
EXTT8=
EXTT9=
EXTT10=
EXTT11=
EXTT12=
PLAYORDER=
